# xmcd
# Track frame offsets:
# 150
# 12467
# 31654
# 41677
# 52477
# 72092
# 86925
# 103171
# 116185
# 131445
# 145096
# 166467
# 178049
# 194818
#
# Disc length: 2839 seconds
# Revision: 0
# Processed by: cddbd v1.4PL0 Copyright (c) Steve Scherf et al.
# Submitted via: VisiTrax 2.9.5.180 - For more info visit www.synapsa.com
#
DISCID=d50b150e
DTITLE=Hank Cochran - Livin' for a song
DYEAR=1900
DGENRE=
TTITLE0=Honky tonk angels
TTITLE1=Something unseen
TTITLE2=I fell apart
TTITLE3=He little thinged her
TTITLE4=Nobodys fool
TTITLE5=You wouldn't know love
TTITLE6=You let me down
TTITLE7=Magic in the band
TTITLE8=When cotton was king
TTITLE9=Sometimes Mississippi
TTITLE10=The pen
TTITLE11=I'm goin' home
TTITLE12=What a beautiful woman
TTITLE13=Livin' for a song
EXTD=
EXTT0=
EXTT1=
EXTT2=
EXTT3=
EXTT4=
EXTT5=
EXTT6=
EXTT7=
EXTT8=
EXTT9=
EXTT10=
EXTT11=
EXTT12=
EXTT13=
PLAYORDER=
